M48
; DRILL file {KiCad (5.1.9)-1} date 02/12/21 16:54:06
; FORMAT={-:-/ absolute / inch / decimal}
; #@! TF.CreationDate,2021-02-12T16:54:06+01:00
; #@! TF.GenerationSoftware,Kicad,Pcbnew,(5.1.9)-1
; #@! TF.FileFunction,Plated,1,2,PTH
FMAT,2
INCH
T1C0.0157
T2C0.0256
T3C0.0315
%
G90
G05
T1
X5.0746Y-4.0549
X5.0746Y-4.2124
X5.0746Y-4.4486
X5.1455Y-3.8581
X5.1766Y-5.3329
X5.2321Y-4.0549
X5.2321Y-4.2124
X5.2321Y-4.4486
X5.2789Y-3.5628
X5.3679Y-3.8069
X5.4049Y-3.8581
X5.4191Y-3.9565
X5.4506Y-4.0707
X5.4833Y-3.5077
X5.5033Y-4.4565
X5.5293Y-4.0707
X5.5758Y-4.0907
X5.651Y-4.4565
X5.9098Y-4.4437
X5.9138Y-4.1189
X5.9758Y-3.4781
X6.0073Y-4.5904
X6.022Y-4.1878
X6.022Y-4.3748
X6.025Y-3.4959
X6.0825Y-3.7667
X6.0848Y-4.0203
X6.1785Y-3.299
X6.1805Y-3.7203
X6.2344Y-3.8341
X6.2691Y-3.4407
X6.2837Y-3.8411
X6.3026Y-4.2636
X6.3065Y-4.4132
X6.3813Y-4.114
X6.3848Y-3.9762
X6.4404Y-4.2636
X6.4443Y-4.4132
X6.5033Y-3.3545
X6.5791Y-3.7232
X6.59Y-3.8108
X6.5939Y-3.2951
X6.5939Y-3.4506
X6.6451Y-3.8659
X6.6781Y-3.3837
X6.6844Y-3.7163
X6.7002Y-4.1927
X6.7376Y-4.3364
X6.7868Y-4.5431
X6.8104Y-4.11
X6.8577Y-4.2045
X6.8656Y-4.4447
X6.903Y-3.4486
X6.9758Y-3.2951
X7.1461Y-4.4437
X7.1539Y-4.1189
X7.2474Y-4.5943
X7.2622Y-4.1878
X7.2622Y-4.3748
X7.3124Y-3.3226
X7.3124Y-3.4171
X7.3301Y-4.4447
X7.3352Y-4.0057
X7.3774Y-4.1179
X7.5333Y-4.4093
X7.6293Y-4.1022
X7.6451Y-3.3541
X7.6711Y-4.4093
X7.6884Y-3.6986
X7.6963Y-3.3837
X7.8183Y-3.6573
X7.8222Y-3.925
X7.8341Y-3.2419
X7.8557Y-3.7478
X7.8557Y-3.8561
X7.9325Y-4.1435
X7.9364Y-3.74
X7.9404Y-4.4053
X7.9797Y-3.4683
X7.9797Y-3.6573
X7.9797Y-4.6183
X8.0191Y-4.1061
X8.0506Y-5.5707
X8.0781Y-4.1455
X8.0781Y-4.4053
X8.151Y-3.3069
X8.151Y-3.423
X8.2248Y-3.548
X8.2258Y-3.4821
X8.2371Y-3.355
X8.3266Y-3.3837
X8.3301Y-4.8022
X8.3321Y-4.9093
X8.3734Y-4.24
X8.3858Y-3.7732
X8.3896Y-4.6045
X8.3896Y-4.9506
X8.399Y-4.0927
X8.4581Y-4.6533
X8.4581Y-4.9907
X8.464Y-4.0943
X8.51Y-4.7167
X8.51Y-5.0604
X8.5624Y-4.5014
X8.5624Y-4.7581
X8.5624Y-5.1439
X8.6096Y-4.3423
X8.6175Y-4.9093
X8.6305Y-4.8022
X8.6315Y-4.0256
X8.6333Y-4.862
X8.6589Y-5.0608
X8.6825Y-4.5254
X8.7002Y-4.047
X8.7002Y-4.1455
X8.7061Y-4.2026
X8.7494Y-5.0608
X8.7809Y-4.862
X8.8242Y-4.9998
X8.8247Y-4.8221
X8.8478Y-5.1947
X8.8911Y-5.3797
X8.8931Y-4.4329
X8.9049Y-4.1455
X8.9581Y-5.1927
X8.991Y-4.8261
X8.9915Y-4.6415
X9.0112Y-4.0667
X9.0161Y-4.5382
X9.0528Y-3.2732
X9.0648Y-4.362
X9.1868Y-4.2833
T3
X4.9925Y-4.0157
X4.9925Y-4.1157
X4.9925Y-4.2157
X4.9925Y-4.3157
X4.9925Y-4.4157
X4.9925Y-4.5157
X4.9925Y-4.6157
X5.2925Y-4.0157
X5.2925Y-4.1157
X5.2925Y-4.2157
X5.2925Y-4.3157
X5.2925Y-4.4157
X5.2925Y-4.5157
X5.2925Y-4.6157
X5.4154Y-4.0157
X5.4154Y-4.1157
X5.4154Y-4.2157
X5.4154Y-4.3157
X5.4154Y-4.4157
X5.4154Y-4.5157
X5.4154Y-4.6157
X5.7154Y-4.0157
X5.7154Y-4.1157
X5.7154Y-4.2157
X5.7154Y-4.3157
X5.7154Y-4.4157
X5.7154Y-4.5157
X5.7154Y-4.6157
X6.2244Y-4.0157
X6.2244Y-4.1157
X6.2244Y-4.2157
X6.2244Y-4.3157
X6.2244Y-4.4157
X6.2244Y-4.5157
X6.2244Y-4.6157
X6.5244Y-4.0157
X6.5244Y-4.1157
X6.5244Y-4.2157
X6.5244Y-4.3157
X6.5244Y-4.4157
X6.5244Y-4.5157
X6.5244Y-4.6157
X6.6474Y-4.0157
X6.6474Y-4.1157
X6.6474Y-4.2157
X6.6474Y-4.3157
X6.6474Y-4.4157
X6.6474Y-4.5157
X6.6474Y-4.6157
X6.9474Y-4.0157
X6.9474Y-4.1157
X6.9474Y-4.2157
X6.9474Y-4.3157
X6.9474Y-4.4157
X6.9474Y-4.5157
X6.9474Y-4.6157
X7.4565Y-4.0157
X7.4565Y-4.1157
X7.4565Y-4.2157
X7.4565Y-4.3157
X7.4565Y-4.4157
X7.4565Y-4.5157
X7.4565Y-4.6157
X7.7565Y-4.0157
X7.7565Y-4.1157
X7.7565Y-4.2157
X7.7565Y-4.3157
X7.7565Y-4.4157
X7.7565Y-4.5157
X7.7565Y-4.6157
X7.8793Y-4.0156
X7.8793Y-4.1156
X7.8793Y-4.2156
X7.8793Y-4.3156
X7.8793Y-4.4156
X7.8793Y-4.5156
X7.8793Y-4.6156
X8.1793Y-4.0156
X8.1793Y-4.1156
X8.1793Y-4.2156
X8.1793Y-4.3156
X8.1793Y-4.4156
X8.1793Y-4.5156
X8.1793Y-4.6156
T2
G00X9.274Y-5.0911
M15
G01X9.3134Y-5.0911
M16
G05
G00X9.274Y-5.4313
M15
G01X9.3134Y-5.4313
M16
G05
G00X9.4187Y-5.0911
M15
G01X9.4699Y-5.0911
M16
G05
G00X9.4187Y-5.4313
M15
G01X9.4699Y-5.4313
M16
G05
T0
M30
