G04 #@! TF.GenerationSoftware,KiCad,Pcbnew,(5.1.9)-1*
G04 #@! TF.CreationDate,2021-02-12T16:54:04+01:00*
G04 #@! TF.ProjectId,LTP305_ESP32_CLOCK,4c545033-3035-45f4-9553-5033325f434c,rev?*
G04 #@! TF.SameCoordinates,Original*
G04 #@! TF.FileFunction,Soldermask,Top*
G04 #@! TF.FilePolarity,Negative*
%FSLAX46Y46*%
G04 Gerber Fmt 4.6, Leading zero omitted, Abs format (unit mm)*
G04 Created by KiCad (PCBNEW (5.1.9)-1) date 2021-02-12 16:54:04*
%MOMM*%
%LPD*%
G01*
G04 APERTURE LIST*
%ADD10C,3.200000*%
%ADD11R,2.600000X2.600000*%
%ADD12R,0.650000X2.100000*%
%ADD13O,2.400000X1.200000*%
%ADD14O,2.316000X1.158000*%
%ADD15C,0.630000*%
%ADD16R,2.000000X1.000000*%
%ADD17C,0.600000*%
%ADD18R,1.000000X0.270000*%
%ADD19R,1.000000X0.520000*%
%ADD20R,1.200000X0.900000*%
%ADD21R,1.400000X1.200000*%
%ADD22R,1.400000X1.000000*%
%ADD23C,1.200000*%
%ADD24R,1.200000X1.200000*%
%ADD25R,0.650000X1.350000*%
%ADD26R,1.800000X1.100000*%
%ADD27R,3.800000X2.000000*%
%ADD28R,1.500000X2.000000*%
%ADD29R,0.400000X1.100000*%
%ADD30R,5.000000X5.000000*%
%ADD31R,2.000000X0.900000*%
%ADD32R,0.900000X2.000000*%
G04 APERTURE END LIST*
D10*
X237335000Y-85495000D03*
X226845000Y-140495000D03*
X138835000Y-135495000D03*
X122835000Y-81495000D03*
G36*
G01*
X131760000Y-139970000D02*
X131210000Y-139970000D01*
G75*
G02*
X131010000Y-139770000I0J200000D01*
G01*
X131010000Y-139370000D01*
G75*
G02*
X131210000Y-139170000I200000J0D01*
G01*
X131760000Y-139170000D01*
G75*
G02*
X131960000Y-139370000I0J-200000D01*
G01*
X131960000Y-139770000D01*
G75*
G02*
X131760000Y-139970000I-200000J0D01*
G01*
G37*
G36*
G01*
X131760000Y-141620000D02*
X131210000Y-141620000D01*
G75*
G02*
X131010000Y-141420000I0J200000D01*
G01*
X131010000Y-141020000D01*
G75*
G02*
X131210000Y-140820000I200000J0D01*
G01*
X131760000Y-140820000D01*
G75*
G02*
X131960000Y-141020000I0J-200000D01*
G01*
X131960000Y-141420000D01*
G75*
G02*
X131760000Y-141620000I-200000J0D01*
G01*
G37*
G36*
G01*
X131210000Y-130820000D02*
X131760000Y-130820000D01*
G75*
G02*
X131960000Y-131020000I0J-200000D01*
G01*
X131960000Y-131420000D01*
G75*
G02*
X131760000Y-131620000I-200000J0D01*
G01*
X131210000Y-131620000D01*
G75*
G02*
X131010000Y-131420000I0J200000D01*
G01*
X131010000Y-131020000D01*
G75*
G02*
X131210000Y-130820000I200000J0D01*
G01*
G37*
G36*
G01*
X131210000Y-129170000D02*
X131760000Y-129170000D01*
G75*
G02*
X131960000Y-129370000I0J-200000D01*
G01*
X131960000Y-129770000D01*
G75*
G02*
X131760000Y-129970000I-200000J0D01*
G01*
X131210000Y-129970000D01*
G75*
G02*
X131010000Y-129770000I0J200000D01*
G01*
X131010000Y-129370000D01*
G75*
G02*
X131210000Y-129170000I200000J0D01*
G01*
G37*
G36*
G01*
X229860000Y-105120000D02*
X229860000Y-105670000D01*
G75*
G02*
X229660000Y-105870000I-200000J0D01*
G01*
X229260000Y-105870000D01*
G75*
G02*
X229060000Y-105670000I0J200000D01*
G01*
X229060000Y-105120000D01*
G75*
G02*
X229260000Y-104920000I200000J0D01*
G01*
X229660000Y-104920000D01*
G75*
G02*
X229860000Y-105120000I0J-200000D01*
G01*
G37*
G36*
G01*
X231510000Y-105120000D02*
X231510000Y-105670000D01*
G75*
G02*
X231310000Y-105870000I-200000J0D01*
G01*
X230910000Y-105870000D01*
G75*
G02*
X230710000Y-105670000I0J200000D01*
G01*
X230710000Y-105120000D01*
G75*
G02*
X230910000Y-104920000I200000J0D01*
G01*
X231310000Y-104920000D01*
G75*
G02*
X231510000Y-105120000I0J-200000D01*
G01*
G37*
G36*
G01*
X229860000Y-107320000D02*
X229860000Y-107870000D01*
G75*
G02*
X229660000Y-108070000I-200000J0D01*
G01*
X229260000Y-108070000D01*
G75*
G02*
X229060000Y-107870000I0J200000D01*
G01*
X229060000Y-107320000D01*
G75*
G02*
X229260000Y-107120000I200000J0D01*
G01*
X229660000Y-107120000D01*
G75*
G02*
X229860000Y-107320000I0J-200000D01*
G01*
G37*
G36*
G01*
X231510000Y-107320000D02*
X231510000Y-107870000D01*
G75*
G02*
X231310000Y-108070000I-200000J0D01*
G01*
X230910000Y-108070000D01*
G75*
G02*
X230710000Y-107870000I0J200000D01*
G01*
X230710000Y-107320000D01*
G75*
G02*
X230910000Y-107120000I200000J0D01*
G01*
X231310000Y-107120000D01*
G75*
G02*
X231510000Y-107320000I0J-200000D01*
G01*
G37*
G36*
G01*
X227660000Y-120270000D02*
X227110000Y-120270000D01*
G75*
G02*
X226910000Y-120070000I0J200000D01*
G01*
X226910000Y-119670000D01*
G75*
G02*
X227110000Y-119470000I200000J0D01*
G01*
X227660000Y-119470000D01*
G75*
G02*
X227860000Y-119670000I0J-200000D01*
G01*
X227860000Y-120070000D01*
G75*
G02*
X227660000Y-120270000I-200000J0D01*
G01*
G37*
G36*
G01*
X227660000Y-121920000D02*
X227110000Y-121920000D01*
G75*
G02*
X226910000Y-121720000I0J200000D01*
G01*
X226910000Y-121320000D01*
G75*
G02*
X227110000Y-121120000I200000J0D01*
G01*
X227660000Y-121120000D01*
G75*
G02*
X227860000Y-121320000I0J-200000D01*
G01*
X227860000Y-121720000D01*
G75*
G02*
X227660000Y-121920000I-200000J0D01*
G01*
G37*
G36*
G01*
X215035000Y-105720000D02*
X215035000Y-106270000D01*
G75*
G02*
X214835000Y-106470000I-200000J0D01*
G01*
X214435000Y-106470000D01*
G75*
G02*
X214235000Y-106270000I0J200000D01*
G01*
X214235000Y-105720000D01*
G75*
G02*
X214435000Y-105520000I200000J0D01*
G01*
X214835000Y-105520000D01*
G75*
G02*
X215035000Y-105720000I0J-200000D01*
G01*
G37*
G36*
G01*
X216685000Y-105720000D02*
X216685000Y-106270000D01*
G75*
G02*
X216485000Y-106470000I-200000J0D01*
G01*
X216085000Y-106470000D01*
G75*
G02*
X215885000Y-106270000I0J200000D01*
G01*
X215885000Y-105720000D01*
G75*
G02*
X216085000Y-105520000I200000J0D01*
G01*
X216485000Y-105520000D01*
G75*
G02*
X216685000Y-105720000I0J-200000D01*
G01*
G37*
G36*
G01*
X227860000Y-114270000D02*
X227310000Y-114270000D01*
G75*
G02*
X227110000Y-114070000I0J200000D01*
G01*
X227110000Y-113670000D01*
G75*
G02*
X227310000Y-113470000I200000J0D01*
G01*
X227860000Y-113470000D01*
G75*
G02*
X228060000Y-113670000I0J-200000D01*
G01*
X228060000Y-114070000D01*
G75*
G02*
X227860000Y-114270000I-200000J0D01*
G01*
G37*
G36*
G01*
X227860000Y-115920000D02*
X227310000Y-115920000D01*
G75*
G02*
X227110000Y-115720000I0J200000D01*
G01*
X227110000Y-115320000D01*
G75*
G02*
X227310000Y-115120000I200000J0D01*
G01*
X227860000Y-115120000D01*
G75*
G02*
X228060000Y-115320000I0J-200000D01*
G01*
X228060000Y-115720000D01*
G75*
G02*
X227860000Y-115920000I-200000J0D01*
G01*
G37*
G36*
G01*
X223460000Y-120270000D02*
X222910000Y-120270000D01*
G75*
G02*
X222710000Y-120070000I0J200000D01*
G01*
X222710000Y-119670000D01*
G75*
G02*
X222910000Y-119470000I200000J0D01*
G01*
X223460000Y-119470000D01*
G75*
G02*
X223660000Y-119670000I0J-200000D01*
G01*
X223660000Y-120070000D01*
G75*
G02*
X223460000Y-120270000I-200000J0D01*
G01*
G37*
G36*
G01*
X223460000Y-121920000D02*
X222910000Y-121920000D01*
G75*
G02*
X222710000Y-121720000I0J200000D01*
G01*
X222710000Y-121320000D01*
G75*
G02*
X222910000Y-121120000I200000J0D01*
G01*
X223460000Y-121120000D01*
G75*
G02*
X223660000Y-121320000I0J-200000D01*
G01*
X223660000Y-121720000D01*
G75*
G02*
X223460000Y-121920000I-200000J0D01*
G01*
G37*
G36*
G01*
X202960000Y-90170000D02*
X202410000Y-90170000D01*
G75*
G02*
X202210000Y-89970000I0J200000D01*
G01*
X202210000Y-89570000D01*
G75*
G02*
X202410000Y-89370000I200000J0D01*
G01*
X202960000Y-89370000D01*
G75*
G02*
X203160000Y-89570000I0J-200000D01*
G01*
X203160000Y-89970000D01*
G75*
G02*
X202960000Y-90170000I-200000J0D01*
G01*
G37*
G36*
G01*
X202960000Y-91820000D02*
X202410000Y-91820000D01*
G75*
G02*
X202210000Y-91620000I0J200000D01*
G01*
X202210000Y-91220000D01*
G75*
G02*
X202410000Y-91020000I200000J0D01*
G01*
X202960000Y-91020000D01*
G75*
G02*
X203160000Y-91220000I0J-200000D01*
G01*
X203160000Y-91620000D01*
G75*
G02*
X202960000Y-91820000I-200000J0D01*
G01*
G37*
G36*
G01*
X213060000Y-90695000D02*
X212510000Y-90695000D01*
G75*
G02*
X212310000Y-90495000I0J200000D01*
G01*
X212310000Y-90095000D01*
G75*
G02*
X212510000Y-89895000I200000J0D01*
G01*
X213060000Y-89895000D01*
G75*
G02*
X213260000Y-90095000I0J-200000D01*
G01*
X213260000Y-90495000D01*
G75*
G02*
X213060000Y-90695000I-200000J0D01*
G01*
G37*
G36*
G01*
X213060000Y-92345000D02*
X212510000Y-92345000D01*
G75*
G02*
X212310000Y-92145000I0J200000D01*
G01*
X212310000Y-91745000D01*
G75*
G02*
X212510000Y-91545000I200000J0D01*
G01*
X213060000Y-91545000D01*
G75*
G02*
X213260000Y-91745000I0J-200000D01*
G01*
X213260000Y-92145000D01*
G75*
G02*
X213060000Y-92345000I-200000J0D01*
G01*
G37*
G36*
G01*
X210910000Y-95920000D02*
X211460000Y-95920000D01*
G75*
G02*
X211660000Y-96120000I0J-200000D01*
G01*
X211660000Y-96520000D01*
G75*
G02*
X211460000Y-96720000I-200000J0D01*
G01*
X210910000Y-96720000D01*
G75*
G02*
X210710000Y-96520000I0J200000D01*
G01*
X210710000Y-96120000D01*
G75*
G02*
X210910000Y-95920000I200000J0D01*
G01*
G37*
G36*
G01*
X210910000Y-94270000D02*
X211460000Y-94270000D01*
G75*
G02*
X211660000Y-94470000I0J-200000D01*
G01*
X211660000Y-94870000D01*
G75*
G02*
X211460000Y-95070000I-200000J0D01*
G01*
X210910000Y-95070000D01*
G75*
G02*
X210710000Y-94870000I0J200000D01*
G01*
X210710000Y-94470000D01*
G75*
G02*
X210910000Y-94270000I200000J0D01*
G01*
G37*
G36*
G01*
X218260000Y-105720000D02*
X218260000Y-106270000D01*
G75*
G02*
X218060000Y-106470000I-200000J0D01*
G01*
X217660000Y-106470000D01*
G75*
G02*
X217460000Y-106270000I0J200000D01*
G01*
X217460000Y-105720000D01*
G75*
G02*
X217660000Y-105520000I200000J0D01*
G01*
X218060000Y-105520000D01*
G75*
G02*
X218260000Y-105720000I0J-200000D01*
G01*
G37*
G36*
G01*
X219910000Y-105720000D02*
X219910000Y-106270000D01*
G75*
G02*
X219710000Y-106470000I-200000J0D01*
G01*
X219310000Y-106470000D01*
G75*
G02*
X219110000Y-106270000I0J200000D01*
G01*
X219110000Y-105720000D01*
G75*
G02*
X219310000Y-105520000I200000J0D01*
G01*
X219710000Y-105520000D01*
G75*
G02*
X219910000Y-105720000I0J-200000D01*
G01*
G37*
G36*
G01*
X219110000Y-113270000D02*
X219110000Y-112720000D01*
G75*
G02*
X219310000Y-112520000I200000J0D01*
G01*
X219710000Y-112520000D01*
G75*
G02*
X219910000Y-112720000I0J-200000D01*
G01*
X219910000Y-113270000D01*
G75*
G02*
X219710000Y-113470000I-200000J0D01*
G01*
X219310000Y-113470000D01*
G75*
G02*
X219110000Y-113270000I0J200000D01*
G01*
G37*
G36*
G01*
X217460000Y-113270000D02*
X217460000Y-112720000D01*
G75*
G02*
X217660000Y-112520000I200000J0D01*
G01*
X218060000Y-112520000D01*
G75*
G02*
X218260000Y-112720000I0J-200000D01*
G01*
X218260000Y-113270000D01*
G75*
G02*
X218060000Y-113470000I-200000J0D01*
G01*
X217660000Y-113470000D01*
G75*
G02*
X217460000Y-113270000I0J200000D01*
G01*
G37*
G36*
G01*
X225010000Y-121120000D02*
X225560000Y-121120000D01*
G75*
G02*
X225760000Y-121320000I0J-200000D01*
G01*
X225760000Y-121720000D01*
G75*
G02*
X225560000Y-121920000I-200000J0D01*
G01*
X225010000Y-121920000D01*
G75*
G02*
X224810000Y-121720000I0J200000D01*
G01*
X224810000Y-121320000D01*
G75*
G02*
X225010000Y-121120000I200000J0D01*
G01*
G37*
G36*
G01*
X225010000Y-119470000D02*
X225560000Y-119470000D01*
G75*
G02*
X225760000Y-119670000I0J-200000D01*
G01*
X225760000Y-120070000D01*
G75*
G02*
X225560000Y-120270000I-200000J0D01*
G01*
X225010000Y-120270000D01*
G75*
G02*
X224810000Y-120070000I0J200000D01*
G01*
X224810000Y-119670000D01*
G75*
G02*
X225010000Y-119470000I200000J0D01*
G01*
G37*
G36*
G01*
X229860000Y-125020000D02*
X229860000Y-125570000D01*
G75*
G02*
X229660000Y-125770000I-200000J0D01*
G01*
X229260000Y-125770000D01*
G75*
G02*
X229060000Y-125570000I0J200000D01*
G01*
X229060000Y-125020000D01*
G75*
G02*
X229260000Y-124820000I200000J0D01*
G01*
X229660000Y-124820000D01*
G75*
G02*
X229860000Y-125020000I0J-200000D01*
G01*
G37*
G36*
G01*
X231510000Y-125020000D02*
X231510000Y-125570000D01*
G75*
G02*
X231310000Y-125770000I-200000J0D01*
G01*
X230910000Y-125770000D01*
G75*
G02*
X230710000Y-125570000I0J200000D01*
G01*
X230710000Y-125020000D01*
G75*
G02*
X230910000Y-124820000I200000J0D01*
G01*
X231310000Y-124820000D01*
G75*
G02*
X231510000Y-125020000I0J-200000D01*
G01*
G37*
G36*
G01*
X199460000Y-90720000D02*
X199460000Y-91270000D01*
G75*
G02*
X199260000Y-91470000I-200000J0D01*
G01*
X198860000Y-91470000D01*
G75*
G02*
X198660000Y-91270000I0J200000D01*
G01*
X198660000Y-90720000D01*
G75*
G02*
X198860000Y-90520000I200000J0D01*
G01*
X199260000Y-90520000D01*
G75*
G02*
X199460000Y-90720000I0J-200000D01*
G01*
G37*
G36*
G01*
X201110000Y-90720000D02*
X201110000Y-91270000D01*
G75*
G02*
X200910000Y-91470000I-200000J0D01*
G01*
X200510000Y-91470000D01*
G75*
G02*
X200310000Y-91270000I0J200000D01*
G01*
X200310000Y-90720000D01*
G75*
G02*
X200510000Y-90520000I200000J0D01*
G01*
X200910000Y-90520000D01*
G75*
G02*
X201110000Y-90720000I0J-200000D01*
G01*
G37*
G36*
G01*
X228460000Y-128970000D02*
X227910000Y-128970000D01*
G75*
G02*
X227710000Y-128770000I0J200000D01*
G01*
X227710000Y-128370000D01*
G75*
G02*
X227910000Y-128170000I200000J0D01*
G01*
X228460000Y-128170000D01*
G75*
G02*
X228660000Y-128370000I0J-200000D01*
G01*
X228660000Y-128770000D01*
G75*
G02*
X228460000Y-128970000I-200000J0D01*
G01*
G37*
G36*
G01*
X228460000Y-130620000D02*
X227910000Y-130620000D01*
G75*
G02*
X227710000Y-130420000I0J200000D01*
G01*
X227710000Y-130020000D01*
G75*
G02*
X227910000Y-129820000I200000J0D01*
G01*
X228460000Y-129820000D01*
G75*
G02*
X228660000Y-130020000I0J-200000D01*
G01*
X228660000Y-130420000D01*
G75*
G02*
X228460000Y-130620000I-200000J0D01*
G01*
G37*
G36*
G01*
X231710000Y-137720000D02*
X232260000Y-137720000D01*
G75*
G02*
X232460000Y-137920000I0J-200000D01*
G01*
X232460000Y-138320000D01*
G75*
G02*
X232260000Y-138520000I-200000J0D01*
G01*
X231710000Y-138520000D01*
G75*
G02*
X231510000Y-138320000I0J200000D01*
G01*
X231510000Y-137920000D01*
G75*
G02*
X231710000Y-137720000I200000J0D01*
G01*
G37*
G36*
G01*
X231710000Y-136070000D02*
X232260000Y-136070000D01*
G75*
G02*
X232460000Y-136270000I0J-200000D01*
G01*
X232460000Y-136670000D01*
G75*
G02*
X232260000Y-136870000I-200000J0D01*
G01*
X231710000Y-136870000D01*
G75*
G02*
X231510000Y-136670000I0J200000D01*
G01*
X231510000Y-136270000D01*
G75*
G02*
X231710000Y-136070000I200000J0D01*
G01*
G37*
G36*
G01*
X196760000Y-94245000D02*
X196760000Y-94745000D01*
G75*
G02*
X196535000Y-94970000I-225000J0D01*
G01*
X196085000Y-94970000D01*
G75*
G02*
X195860000Y-94745000I0J225000D01*
G01*
X195860000Y-94245000D01*
G75*
G02*
X196085000Y-94020000I225000J0D01*
G01*
X196535000Y-94020000D01*
G75*
G02*
X196760000Y-94245000I0J-225000D01*
G01*
G37*
G36*
G01*
X198310000Y-94245000D02*
X198310000Y-94745000D01*
G75*
G02*
X198085000Y-94970000I-225000J0D01*
G01*
X197635000Y-94970000D01*
G75*
G02*
X197410000Y-94745000I0J225000D01*
G01*
X197410000Y-94245000D01*
G75*
G02*
X197635000Y-94020000I225000J0D01*
G01*
X198085000Y-94020000D01*
G75*
G02*
X198310000Y-94245000I0J-225000D01*
G01*
G37*
G36*
G01*
X153960000Y-93755000D02*
X153960000Y-94255000D01*
G75*
G02*
X153735000Y-94480000I-225000J0D01*
G01*
X153285000Y-94480000D01*
G75*
G02*
X153060000Y-94255000I0J225000D01*
G01*
X153060000Y-93755000D01*
G75*
G02*
X153285000Y-93530000I225000J0D01*
G01*
X153735000Y-93530000D01*
G75*
G02*
X153960000Y-93755000I0J-225000D01*
G01*
G37*
G36*
G01*
X155510000Y-93755000D02*
X155510000Y-94255000D01*
G75*
G02*
X155285000Y-94480000I-225000J0D01*
G01*
X154835000Y-94480000D01*
G75*
G02*
X154610000Y-94255000I0J225000D01*
G01*
X154610000Y-93755000D01*
G75*
G02*
X154835000Y-93530000I225000J0D01*
G01*
X155285000Y-93530000D01*
G75*
G02*
X155510000Y-93755000I0J-225000D01*
G01*
G37*
G36*
G01*
X210635000Y-83895000D02*
X211135000Y-83895000D01*
G75*
G02*
X211360000Y-84120000I0J-225000D01*
G01*
X211360000Y-84570000D01*
G75*
G02*
X211135000Y-84795000I-225000J0D01*
G01*
X210635000Y-84795000D01*
G75*
G02*
X210410000Y-84570000I0J225000D01*
G01*
X210410000Y-84120000D01*
G75*
G02*
X210635000Y-83895000I225000J0D01*
G01*
G37*
G36*
G01*
X210635000Y-82345000D02*
X211135000Y-82345000D01*
G75*
G02*
X211360000Y-82570000I0J-225000D01*
G01*
X211360000Y-83020000D01*
G75*
G02*
X211135000Y-83245000I-225000J0D01*
G01*
X210635000Y-83245000D01*
G75*
G02*
X210410000Y-83020000I0J225000D01*
G01*
X210410000Y-82570000D01*
G75*
G02*
X210635000Y-82345000I225000J0D01*
G01*
G37*
G36*
G01*
X212535000Y-83895000D02*
X213035000Y-83895000D01*
G75*
G02*
X213260000Y-84120000I0J-225000D01*
G01*
X213260000Y-84570000D01*
G75*
G02*
X213035000Y-84795000I-225000J0D01*
G01*
X212535000Y-84795000D01*
G75*
G02*
X212310000Y-84570000I0J225000D01*
G01*
X212310000Y-84120000D01*
G75*
G02*
X212535000Y-83895000I225000J0D01*
G01*
G37*
G36*
G01*
X212535000Y-82345000D02*
X213035000Y-82345000D01*
G75*
G02*
X213260000Y-82570000I0J-225000D01*
G01*
X213260000Y-83020000D01*
G75*
G02*
X213035000Y-83245000I-225000J0D01*
G01*
X212535000Y-83245000D01*
G75*
G02*
X212310000Y-83020000I0J225000D01*
G01*
X212310000Y-82570000D01*
G75*
G02*
X212535000Y-82345000I225000J0D01*
G01*
G37*
G36*
G01*
X229735000Y-120370000D02*
X229235000Y-120370000D01*
G75*
G02*
X229010000Y-120145000I0J225000D01*
G01*
X229010000Y-119695000D01*
G75*
G02*
X229235000Y-119470000I225000J0D01*
G01*
X229735000Y-119470000D01*
G75*
G02*
X229960000Y-119695000I0J-225000D01*
G01*
X229960000Y-120145000D01*
G75*
G02*
X229735000Y-120370000I-225000J0D01*
G01*
G37*
G36*
G01*
X229735000Y-121920000D02*
X229235000Y-121920000D01*
G75*
G02*
X229010000Y-121695000I0J225000D01*
G01*
X229010000Y-121245000D01*
G75*
G02*
X229235000Y-121020000I225000J0D01*
G01*
X229735000Y-121020000D01*
G75*
G02*
X229960000Y-121245000I0J-225000D01*
G01*
X229960000Y-121695000D01*
G75*
G02*
X229735000Y-121920000I-225000J0D01*
G01*
G37*
G36*
G01*
X231835000Y-120370000D02*
X231335000Y-120370000D01*
G75*
G02*
X231110000Y-120145000I0J225000D01*
G01*
X231110000Y-119695000D01*
G75*
G02*
X231335000Y-119470000I225000J0D01*
G01*
X231835000Y-119470000D01*
G75*
G02*
X232060000Y-119695000I0J-225000D01*
G01*
X232060000Y-120145000D01*
G75*
G02*
X231835000Y-120370000I-225000J0D01*
G01*
G37*
G36*
G01*
X231835000Y-121920000D02*
X231335000Y-121920000D01*
G75*
G02*
X231110000Y-121695000I0J225000D01*
G01*
X231110000Y-121245000D01*
G75*
G02*
X231335000Y-121020000I225000J0D01*
G01*
X231835000Y-121020000D01*
G75*
G02*
X232060000Y-121245000I0J-225000D01*
G01*
X232060000Y-121695000D01*
G75*
G02*
X231835000Y-121920000I-225000J0D01*
G01*
G37*
G36*
G01*
X217385000Y-103445000D02*
X217385000Y-103945000D01*
G75*
G02*
X217160000Y-104170000I-225000J0D01*
G01*
X216710000Y-104170000D01*
G75*
G02*
X216485000Y-103945000I0J225000D01*
G01*
X216485000Y-103445000D01*
G75*
G02*
X216710000Y-103220000I225000J0D01*
G01*
X217160000Y-103220000D01*
G75*
G02*
X217385000Y-103445000I0J-225000D01*
G01*
G37*
G36*
G01*
X218935000Y-103445000D02*
X218935000Y-103945000D01*
G75*
G02*
X218710000Y-104170000I-225000J0D01*
G01*
X218260000Y-104170000D01*
G75*
G02*
X218035000Y-103945000I0J225000D01*
G01*
X218035000Y-103445000D01*
G75*
G02*
X218260000Y-103220000I225000J0D01*
G01*
X218710000Y-103220000D01*
G75*
G02*
X218935000Y-103445000I0J-225000D01*
G01*
G37*
G36*
G01*
X217835000Y-140020000D02*
X218335000Y-140020000D01*
G75*
G02*
X218560000Y-140245000I0J-225000D01*
G01*
X218560000Y-140695000D01*
G75*
G02*
X218335000Y-140920000I-225000J0D01*
G01*
X217835000Y-140920000D01*
G75*
G02*
X217610000Y-140695000I0J225000D01*
G01*
X217610000Y-140245000D01*
G75*
G02*
X217835000Y-140020000I225000J0D01*
G01*
G37*
G36*
G01*
X217835000Y-138470000D02*
X218335000Y-138470000D01*
G75*
G02*
X218560000Y-138695000I0J-225000D01*
G01*
X218560000Y-139145000D01*
G75*
G02*
X218335000Y-139370000I-225000J0D01*
G01*
X217835000Y-139370000D01*
G75*
G02*
X217610000Y-139145000I0J225000D01*
G01*
X217610000Y-138695000D01*
G75*
G02*
X217835000Y-138470000I225000J0D01*
G01*
G37*
G36*
G01*
X190835000Y-139920000D02*
X191335000Y-139920000D01*
G75*
G02*
X191560000Y-140145000I0J-225000D01*
G01*
X191560000Y-140595000D01*
G75*
G02*
X191335000Y-140820000I-225000J0D01*
G01*
X190835000Y-140820000D01*
G75*
G02*
X190610000Y-140595000I0J225000D01*
G01*
X190610000Y-140145000D01*
G75*
G02*
X190835000Y-139920000I225000J0D01*
G01*
G37*
G36*
G01*
X190835000Y-138370000D02*
X191335000Y-138370000D01*
G75*
G02*
X191560000Y-138595000I0J-225000D01*
G01*
X191560000Y-139045000D01*
G75*
G02*
X191335000Y-139270000I-225000J0D01*
G01*
X190835000Y-139270000D01*
G75*
G02*
X190610000Y-139045000I0J225000D01*
G01*
X190610000Y-138595000D01*
G75*
G02*
X190835000Y-138370000I225000J0D01*
G01*
G37*
G36*
G01*
X233335000Y-121020000D02*
X233835000Y-121020000D01*
G75*
G02*
X234060000Y-121245000I0J-225000D01*
G01*
X234060000Y-121695000D01*
G75*
G02*
X233835000Y-121920000I-225000J0D01*
G01*
X233335000Y-121920000D01*
G75*
G02*
X233110000Y-121695000I0J225000D01*
G01*
X233110000Y-121245000D01*
G75*
G02*
X233335000Y-121020000I225000J0D01*
G01*
G37*
G36*
G01*
X233335000Y-119470000D02*
X233835000Y-119470000D01*
G75*
G02*
X234060000Y-119695000I0J-225000D01*
G01*
X234060000Y-120145000D01*
G75*
G02*
X233835000Y-120370000I-225000J0D01*
G01*
X233335000Y-120370000D01*
G75*
G02*
X233110000Y-120145000I0J225000D01*
G01*
X233110000Y-119695000D01*
G75*
G02*
X233335000Y-119470000I225000J0D01*
G01*
G37*
G36*
G01*
X235335000Y-121020000D02*
X235835000Y-121020000D01*
G75*
G02*
X236060000Y-121245000I0J-225000D01*
G01*
X236060000Y-121695000D01*
G75*
G02*
X235835000Y-121920000I-225000J0D01*
G01*
X235335000Y-121920000D01*
G75*
G02*
X235110000Y-121695000I0J225000D01*
G01*
X235110000Y-121245000D01*
G75*
G02*
X235335000Y-121020000I225000J0D01*
G01*
G37*
G36*
G01*
X235335000Y-119470000D02*
X235835000Y-119470000D01*
G75*
G02*
X236060000Y-119695000I0J-225000D01*
G01*
X236060000Y-120145000D01*
G75*
G02*
X235835000Y-120370000I-225000J0D01*
G01*
X235335000Y-120370000D01*
G75*
G02*
X235110000Y-120145000I0J225000D01*
G01*
X235110000Y-119695000D01*
G75*
G02*
X235335000Y-119470000I225000J0D01*
G01*
G37*
D11*
X223985000Y-115695000D03*
G36*
G01*
X222610000Y-114107500D02*
X222610000Y-113407500D01*
G75*
G02*
X222672500Y-113345000I62500J0D01*
G01*
X222797500Y-113345000D01*
G75*
G02*
X222860000Y-113407500I0J-62500D01*
G01*
X222860000Y-114107500D01*
G75*
G02*
X222797500Y-114170000I-62500J0D01*
G01*
X222672500Y-114170000D01*
G75*
G02*
X222610000Y-114107500I0J62500D01*
G01*
G37*
G36*
G01*
X223110000Y-114107500D02*
X223110000Y-113407500D01*
G75*
G02*
X223172500Y-113345000I62500J0D01*
G01*
X223297500Y-113345000D01*
G75*
G02*
X223360000Y-113407500I0J-62500D01*
G01*
X223360000Y-114107500D01*
G75*
G02*
X223297500Y-114170000I-62500J0D01*
G01*
X223172500Y-114170000D01*
G75*
G02*
X223110000Y-114107500I0J62500D01*
G01*
G37*
G36*
G01*
X223610000Y-114107500D02*
X223610000Y-113407500D01*
G75*
G02*
X223672500Y-113345000I62500J0D01*
G01*
X223797500Y-113345000D01*
G75*
G02*
X223860000Y-113407500I0J-62500D01*
G01*
X223860000Y-114107500D01*
G75*
G02*
X223797500Y-114170000I-62500J0D01*
G01*
X223672500Y-114170000D01*
G75*
G02*
X223610000Y-114107500I0J62500D01*
G01*
G37*
G36*
G01*
X224110000Y-114107500D02*
X224110000Y-113407500D01*
G75*
G02*
X224172500Y-113345000I62500J0D01*
G01*
X224297500Y-113345000D01*
G75*
G02*
X224360000Y-113407500I0J-62500D01*
G01*
X224360000Y-114107500D01*
G75*
G02*
X224297500Y-114170000I-62500J0D01*
G01*
X224172500Y-114170000D01*
G75*
G02*
X224110000Y-114107500I0J62500D01*
G01*
G37*
G36*
G01*
X224610000Y-114107500D02*
X224610000Y-113407500D01*
G75*
G02*
X224672500Y-113345000I62500J0D01*
G01*
X224797500Y-113345000D01*
G75*
G02*
X224860000Y-113407500I0J-62500D01*
G01*
X224860000Y-114107500D01*
G75*
G02*
X224797500Y-114170000I-62500J0D01*
G01*
X224672500Y-114170000D01*
G75*
G02*
X224610000Y-114107500I0J62500D01*
G01*
G37*
G36*
G01*
X225110000Y-114107500D02*
X225110000Y-113407500D01*
G75*
G02*
X225172500Y-113345000I62500J0D01*
G01*
X225297500Y-113345000D01*
G75*
G02*
X225360000Y-113407500I0J-62500D01*
G01*
X225360000Y-114107500D01*
G75*
G02*
X225297500Y-114170000I-62500J0D01*
G01*
X225172500Y-114170000D01*
G75*
G02*
X225110000Y-114107500I0J62500D01*
G01*
G37*
G36*
G01*
X225510000Y-114507500D02*
X225510000Y-114382500D01*
G75*
G02*
X225572500Y-114320000I62500J0D01*
G01*
X226272500Y-114320000D01*
G75*
G02*
X226335000Y-114382500I0J-62500D01*
G01*
X226335000Y-114507500D01*
G75*
G02*
X226272500Y-114570000I-62500J0D01*
G01*
X225572500Y-114570000D01*
G75*
G02*
X225510000Y-114507500I0J62500D01*
G01*
G37*
G36*
G01*
X225510000Y-115007500D02*
X225510000Y-114882500D01*
G75*
G02*
X225572500Y-114820000I62500J0D01*
G01*
X226272500Y-114820000D01*
G75*
G02*
X226335000Y-114882500I0J-62500D01*
G01*
X226335000Y-115007500D01*
G75*
G02*
X226272500Y-115070000I-62500J0D01*
G01*
X225572500Y-115070000D01*
G75*
G02*
X225510000Y-115007500I0J62500D01*
G01*
G37*
G36*
G01*
X225510000Y-115507500D02*
X225510000Y-115382500D01*
G75*
G02*
X225572500Y-115320000I62500J0D01*
G01*
X226272500Y-115320000D01*
G75*
G02*
X226335000Y-115382500I0J-62500D01*
G01*
X226335000Y-115507500D01*
G75*
G02*
X226272500Y-115570000I-62500J0D01*
G01*
X225572500Y-115570000D01*
G75*
G02*
X225510000Y-115507500I0J62500D01*
G01*
G37*
G36*
G01*
X225510000Y-116007500D02*
X225510000Y-115882500D01*
G75*
G02*
X225572500Y-115820000I62500J0D01*
G01*
X226272500Y-115820000D01*
G75*
G02*
X226335000Y-115882500I0J-62500D01*
G01*
X226335000Y-116007500D01*
G75*
G02*
X226272500Y-116070000I-62500J0D01*
G01*
X225572500Y-116070000D01*
G75*
G02*
X225510000Y-116007500I0J62500D01*
G01*
G37*
G36*
G01*
X225510000Y-116507500D02*
X225510000Y-116382500D01*
G75*
G02*
X225572500Y-116320000I62500J0D01*
G01*
X226272500Y-116320000D01*
G75*
G02*
X226335000Y-116382500I0J-62500D01*
G01*
X226335000Y-116507500D01*
G75*
G02*
X226272500Y-116570000I-62500J0D01*
G01*
X225572500Y-116570000D01*
G75*
G02*
X225510000Y-116507500I0J62500D01*
G01*
G37*
G36*
G01*
X225510000Y-117007500D02*
X225510000Y-116882500D01*
G75*
G02*
X225572500Y-116820000I62500J0D01*
G01*
X226272500Y-116820000D01*
G75*
G02*
X226335000Y-116882500I0J-62500D01*
G01*
X226335000Y-117007500D01*
G75*
G02*
X226272500Y-117070000I-62500J0D01*
G01*
X225572500Y-117070000D01*
G75*
G02*
X225510000Y-117007500I0J62500D01*
G01*
G37*
G36*
G01*
X225110000Y-117982500D02*
X225110000Y-117282500D01*
G75*
G02*
X225172500Y-117220000I62500J0D01*
G01*
X225297500Y-117220000D01*
G75*
G02*
X225360000Y-117282500I0J-62500D01*
G01*
X225360000Y-117982500D01*
G75*
G02*
X225297500Y-118045000I-62500J0D01*
G01*
X225172500Y-118045000D01*
G75*
G02*
X225110000Y-117982500I0J62500D01*
G01*
G37*
G36*
G01*
X224610000Y-117982500D02*
X224610000Y-117282500D01*
G75*
G02*
X224672500Y-117220000I62500J0D01*
G01*
X224797500Y-117220000D01*
G75*
G02*
X224860000Y-117282500I0J-62500D01*
G01*
X224860000Y-117982500D01*
G75*
G02*
X224797500Y-118045000I-62500J0D01*
G01*
X224672500Y-118045000D01*
G75*
G02*
X224610000Y-117982500I0J62500D01*
G01*
G37*
G36*
G01*
X224110000Y-117982500D02*
X224110000Y-117282500D01*
G75*
G02*
X224172500Y-117220000I62500J0D01*
G01*
X224297500Y-117220000D01*
G75*
G02*
X224360000Y-117282500I0J-62500D01*
G01*
X224360000Y-117982500D01*
G75*
G02*
X224297500Y-118045000I-62500J0D01*
G01*
X224172500Y-118045000D01*
G75*
G02*
X224110000Y-117982500I0J62500D01*
G01*
G37*
G36*
G01*
X223610000Y-117982500D02*
X223610000Y-117282500D01*
G75*
G02*
X223672500Y-117220000I62500J0D01*
G01*
X223797500Y-117220000D01*
G75*
G02*
X223860000Y-117282500I0J-62500D01*
G01*
X223860000Y-117982500D01*
G75*
G02*
X223797500Y-118045000I-62500J0D01*
G01*
X223672500Y-118045000D01*
G75*
G02*
X223610000Y-117982500I0J62500D01*
G01*
G37*
G36*
G01*
X223110000Y-117982500D02*
X223110000Y-117282500D01*
G75*
G02*
X223172500Y-117220000I62500J0D01*
G01*
X223297500Y-117220000D01*
G75*
G02*
X223360000Y-117282500I0J-62500D01*
G01*
X223360000Y-117982500D01*
G75*
G02*
X223297500Y-118045000I-62500J0D01*
G01*
X223172500Y-118045000D01*
G75*
G02*
X223110000Y-117982500I0J62500D01*
G01*
G37*
G36*
G01*
X222610000Y-117982500D02*
X222610000Y-117282500D01*
G75*
G02*
X222672500Y-117220000I62500J0D01*
G01*
X222797500Y-117220000D01*
G75*
G02*
X222860000Y-117282500I0J-62500D01*
G01*
X222860000Y-117982500D01*
G75*
G02*
X222797500Y-118045000I-62500J0D01*
G01*
X222672500Y-118045000D01*
G75*
G02*
X222610000Y-117982500I0J62500D01*
G01*
G37*
G36*
G01*
X221635000Y-117007500D02*
X221635000Y-116882500D01*
G75*
G02*
X221697500Y-116820000I62500J0D01*
G01*
X222397500Y-116820000D01*
G75*
G02*
X222460000Y-116882500I0J-62500D01*
G01*
X222460000Y-117007500D01*
G75*
G02*
X222397500Y-117070000I-62500J0D01*
G01*
X221697500Y-117070000D01*
G75*
G02*
X221635000Y-117007500I0J62500D01*
G01*
G37*
G36*
G01*
X221635000Y-116507500D02*
X221635000Y-116382500D01*
G75*
G02*
X221697500Y-116320000I62500J0D01*
G01*
X222397500Y-116320000D01*
G75*
G02*
X222460000Y-116382500I0J-62500D01*
G01*
X222460000Y-116507500D01*
G75*
G02*
X222397500Y-116570000I-62500J0D01*
G01*
X221697500Y-116570000D01*
G75*
G02*
X221635000Y-116507500I0J62500D01*
G01*
G37*
G36*
G01*
X221635000Y-116007500D02*
X221635000Y-115882500D01*
G75*
G02*
X221697500Y-115820000I62500J0D01*
G01*
X222397500Y-115820000D01*
G75*
G02*
X222460000Y-115882500I0J-62500D01*
G01*
X222460000Y-116007500D01*
G75*
G02*
X222397500Y-116070000I-62500J0D01*
G01*
X221697500Y-116070000D01*
G75*
G02*
X221635000Y-116007500I0J62500D01*
G01*
G37*
G36*
G01*
X221635000Y-115507500D02*
X221635000Y-115382500D01*
G75*
G02*
X221697500Y-115320000I62500J0D01*
G01*
X222397500Y-115320000D01*
G75*
G02*
X222460000Y-115382500I0J-62500D01*
G01*
X222460000Y-115507500D01*
G75*
G02*
X222397500Y-115570000I-62500J0D01*
G01*
X221697500Y-115570000D01*
G75*
G02*
X221635000Y-115507500I0J62500D01*
G01*
G37*
G36*
G01*
X221635000Y-115007500D02*
X221635000Y-114882500D01*
G75*
G02*
X221697500Y-114820000I62500J0D01*
G01*
X222397500Y-114820000D01*
G75*
G02*
X222460000Y-114882500I0J-62500D01*
G01*
X222460000Y-115007500D01*
G75*
G02*
X222397500Y-115070000I-62500J0D01*
G01*
X221697500Y-115070000D01*
G75*
G02*
X221635000Y-115007500I0J62500D01*
G01*
G37*
G36*
G01*
X221635000Y-114507500D02*
X221635000Y-114382500D01*
G75*
G02*
X221697500Y-114320000I62500J0D01*
G01*
X222397500Y-114320000D01*
G75*
G02*
X222460000Y-114382500I0J-62500D01*
G01*
X222460000Y-114507500D01*
G75*
G02*
X222397500Y-114570000I-62500J0D01*
G01*
X221697500Y-114570000D01*
G75*
G02*
X221635000Y-114507500I0J62500D01*
G01*
G37*
D12*
X154340000Y-82345000D03*
X153070000Y-82345000D03*
X151800000Y-82345000D03*
X150530000Y-82345000D03*
X149260000Y-82345000D03*
X147990000Y-82345000D03*
X146720000Y-82345000D03*
X145450000Y-82345000D03*
X144180000Y-82345000D03*
X142910000Y-82345000D03*
X141640000Y-82345000D03*
X140370000Y-82345000D03*
X139100000Y-82345000D03*
X137830000Y-82345000D03*
X137830000Y-91645000D03*
X139100000Y-91645000D03*
X140370000Y-91645000D03*
X141640000Y-91645000D03*
X142910000Y-91645000D03*
X144180000Y-91645000D03*
X145450000Y-91645000D03*
X146720000Y-91645000D03*
X147990000Y-91645000D03*
X149260000Y-91645000D03*
X150530000Y-91645000D03*
X151800000Y-91645000D03*
X153070000Y-91645000D03*
X154340000Y-91645000D03*
D13*
X239885000Y-129315000D03*
X239885000Y-137955000D03*
D14*
X236060000Y-129315000D03*
X236060000Y-137955000D03*
D15*
X236785000Y-136635000D03*
D16*
X239885000Y-132235000D03*
X239885000Y-135035000D03*
D15*
X236785000Y-130635000D03*
D17*
X236785000Y-130635000D03*
D18*
X235685000Y-132385000D03*
X235685000Y-132885000D03*
X235685000Y-133385000D03*
X235685000Y-133885000D03*
X235685000Y-134385000D03*
X235685000Y-134885000D03*
X235685000Y-131885000D03*
X235685000Y-135385000D03*
D19*
X235685000Y-131285000D03*
X235685000Y-135985000D03*
X235685000Y-130535000D03*
X235685000Y-136735000D03*
D20*
X233885000Y-126845000D03*
X233885000Y-123545000D03*
D21*
X225785000Y-130265000D03*
D22*
X225785000Y-128545000D03*
X223585000Y-128545000D03*
X223585000Y-130445000D03*
D20*
X199885000Y-89345000D03*
X199885000Y-86045000D03*
G36*
G01*
X223335000Y-125870000D02*
X223335000Y-124720000D01*
G75*
G02*
X223585000Y-124470000I250000J0D01*
G01*
X224685000Y-124470000D01*
G75*
G02*
X224935000Y-124720000I0J-250000D01*
G01*
X224935000Y-125870000D01*
G75*
G02*
X224685000Y-126120000I-250000J0D01*
G01*
X223585000Y-126120000D01*
G75*
G02*
X223335000Y-125870000I0J250000D01*
G01*
G37*
G36*
G01*
X226185000Y-125870000D02*
X226185000Y-124720000D01*
G75*
G02*
X226435000Y-124470000I250000J0D01*
G01*
X227535000Y-124470000D01*
G75*
G02*
X227785000Y-124720000I0J-250000D01*
G01*
X227785000Y-125870000D01*
G75*
G02*
X227535000Y-126120000I-250000J0D01*
G01*
X226435000Y-126120000D01*
G75*
G02*
X226185000Y-125870000I0J250000D01*
G01*
G37*
G36*
G01*
X151397500Y-105845000D02*
X151872500Y-105845000D01*
G75*
G02*
X152110000Y-106082500I0J-237500D01*
G01*
X152110000Y-106657500D01*
G75*
G02*
X151872500Y-106895000I-237500J0D01*
G01*
X151397500Y-106895000D01*
G75*
G02*
X151160000Y-106657500I0J237500D01*
G01*
X151160000Y-106082500D01*
G75*
G02*
X151397500Y-105845000I237500J0D01*
G01*
G37*
G36*
G01*
X151397500Y-104095000D02*
X151872500Y-104095000D01*
G75*
G02*
X152110000Y-104332500I0J-237500D01*
G01*
X152110000Y-104907500D01*
G75*
G02*
X151872500Y-105145000I-237500J0D01*
G01*
X151397500Y-105145000D01*
G75*
G02*
X151160000Y-104907500I0J237500D01*
G01*
X151160000Y-104332500D01*
G75*
G02*
X151397500Y-104095000I237500J0D01*
G01*
G37*
G36*
G01*
X151872500Y-113395000D02*
X151397500Y-113395000D01*
G75*
G02*
X151160000Y-113157500I0J237500D01*
G01*
X151160000Y-112582500D01*
G75*
G02*
X151397500Y-112345000I237500J0D01*
G01*
X151872500Y-112345000D01*
G75*
G02*
X152110000Y-112582500I0J-237500D01*
G01*
X152110000Y-113157500D01*
G75*
G02*
X151872500Y-113395000I-237500J0D01*
G01*
G37*
G36*
G01*
X151872500Y-111645000D02*
X151397500Y-111645000D01*
G75*
G02*
X151160000Y-111407500I0J237500D01*
G01*
X151160000Y-110832500D01*
G75*
G02*
X151397500Y-110595000I237500J0D01*
G01*
X151872500Y-110595000D01*
G75*
G02*
X152110000Y-110832500I0J-237500D01*
G01*
X152110000Y-111407500D01*
G75*
G02*
X151872500Y-111645000I-237500J0D01*
G01*
G37*
G36*
G01*
X182692500Y-105845000D02*
X183167500Y-105845000D01*
G75*
G02*
X183405000Y-106082500I0J-237500D01*
G01*
X183405000Y-106657500D01*
G75*
G02*
X183167500Y-106895000I-237500J0D01*
G01*
X182692500Y-106895000D01*
G75*
G02*
X182455000Y-106657500I0J237500D01*
G01*
X182455000Y-106082500D01*
G75*
G02*
X182692500Y-105845000I237500J0D01*
G01*
G37*
G36*
G01*
X182692500Y-104095000D02*
X183167500Y-104095000D01*
G75*
G02*
X183405000Y-104332500I0J-237500D01*
G01*
X183405000Y-104907500D01*
G75*
G02*
X183167500Y-105145000I-237500J0D01*
G01*
X182692500Y-105145000D01*
G75*
G02*
X182455000Y-104907500I0J237500D01*
G01*
X182455000Y-104332500D01*
G75*
G02*
X182692500Y-104095000I237500J0D01*
G01*
G37*
G36*
G01*
X183167500Y-113395000D02*
X182692500Y-113395000D01*
G75*
G02*
X182455000Y-113157500I0J237500D01*
G01*
X182455000Y-112582500D01*
G75*
G02*
X182692500Y-112345000I237500J0D01*
G01*
X183167500Y-112345000D01*
G75*
G02*
X183405000Y-112582500I0J-237500D01*
G01*
X183405000Y-113157500D01*
G75*
G02*
X183167500Y-113395000I-237500J0D01*
G01*
G37*
G36*
G01*
X183167500Y-111645000D02*
X182692500Y-111645000D01*
G75*
G02*
X182455000Y-111407500I0J237500D01*
G01*
X182455000Y-110832500D01*
G75*
G02*
X182692500Y-110595000I237500J0D01*
G01*
X183167500Y-110595000D01*
G75*
G02*
X183405000Y-110832500I0J-237500D01*
G01*
X183405000Y-111407500D01*
G75*
G02*
X183167500Y-111645000I-237500J0D01*
G01*
G37*
D23*
X134430000Y-102000000D03*
X134430000Y-104540000D03*
X134430000Y-107080000D03*
X134430000Y-109620000D03*
X134430000Y-112160000D03*
X134430000Y-114700000D03*
X134430000Y-117240000D03*
X126810000Y-117240000D03*
X126810000Y-114700000D03*
X126810000Y-112160000D03*
X126810000Y-109620000D03*
X126810000Y-107080000D03*
X126810000Y-104540000D03*
D24*
X126810000Y-102000000D03*
X137550000Y-102000000D03*
D23*
X137550000Y-104540000D03*
X137550000Y-107080000D03*
X137550000Y-109620000D03*
X137550000Y-112160000D03*
X137550000Y-114700000D03*
X137550000Y-117240000D03*
X145170000Y-117240000D03*
X145170000Y-114700000D03*
X145170000Y-112160000D03*
X145170000Y-109620000D03*
X145170000Y-107080000D03*
X145170000Y-104540000D03*
X145170000Y-102000000D03*
X165720000Y-102000000D03*
X165720000Y-104540000D03*
X165720000Y-107080000D03*
X165720000Y-109620000D03*
X165720000Y-112160000D03*
X165720000Y-114700000D03*
X165720000Y-117240000D03*
X158100000Y-117240000D03*
X158100000Y-114700000D03*
X158100000Y-112160000D03*
X158100000Y-109620000D03*
X158100000Y-107080000D03*
X158100000Y-104540000D03*
D24*
X158100000Y-102000000D03*
D23*
X176465000Y-102000000D03*
X176465000Y-104540000D03*
X176465000Y-107080000D03*
X176465000Y-109620000D03*
X176465000Y-112160000D03*
X176465000Y-114700000D03*
X176465000Y-117240000D03*
X168845000Y-117240000D03*
X168845000Y-114700000D03*
X168845000Y-112160000D03*
X168845000Y-109620000D03*
X168845000Y-107080000D03*
X168845000Y-104540000D03*
D24*
X168845000Y-102000000D03*
X189395000Y-102000000D03*
D23*
X189395000Y-104540000D03*
X189395000Y-107080000D03*
X189395000Y-109620000D03*
X189395000Y-112160000D03*
X189395000Y-114700000D03*
X189395000Y-117240000D03*
X197015000Y-117240000D03*
X197015000Y-114700000D03*
X197015000Y-112160000D03*
X197015000Y-109620000D03*
X197015000Y-107080000D03*
X197015000Y-104540000D03*
X197015000Y-102000000D03*
D24*
X200135000Y-101995000D03*
D23*
X200135000Y-104535000D03*
X200135000Y-107075000D03*
X200135000Y-109615000D03*
X200135000Y-112155000D03*
X200135000Y-114695000D03*
X200135000Y-117235000D03*
X207755000Y-117235000D03*
X207755000Y-114695000D03*
X207755000Y-112155000D03*
X207755000Y-109615000D03*
X207755000Y-107075000D03*
X207755000Y-104535000D03*
X207755000Y-101995000D03*
D12*
X196740000Y-91645000D03*
X195470000Y-91645000D03*
X194200000Y-91645000D03*
X192930000Y-91645000D03*
X191660000Y-91645000D03*
X190390000Y-91645000D03*
X189120000Y-91645000D03*
X187850000Y-91645000D03*
X186580000Y-91645000D03*
X185310000Y-91645000D03*
X184040000Y-91645000D03*
X182770000Y-91645000D03*
X181500000Y-91645000D03*
X180230000Y-91645000D03*
X180230000Y-82345000D03*
X181500000Y-82345000D03*
X182770000Y-82345000D03*
X184040000Y-82345000D03*
X185310000Y-82345000D03*
X186580000Y-82345000D03*
X187850000Y-82345000D03*
X189120000Y-82345000D03*
X190390000Y-82345000D03*
X191660000Y-82345000D03*
X192930000Y-82345000D03*
X194200000Y-82345000D03*
X195470000Y-82345000D03*
X196740000Y-82345000D03*
D25*
X216285000Y-108395000D03*
X217245000Y-110395000D03*
X215325000Y-110395000D03*
X220125000Y-110395000D03*
X222045000Y-110395000D03*
X221085000Y-108395000D03*
G36*
G01*
X151985000Y-118745001D02*
X151985000Y-117844999D01*
G75*
G02*
X152234999Y-117595000I249999J0D01*
G01*
X152935001Y-117595000D01*
G75*
G02*
X153185000Y-117844999I0J-249999D01*
G01*
X153185000Y-118745001D01*
G75*
G02*
X152935001Y-118995000I-249999J0D01*
G01*
X152234999Y-118995000D01*
G75*
G02*
X151985000Y-118745001I0J249999D01*
G01*
G37*
G36*
G01*
X149985000Y-118745001D02*
X149985000Y-117844999D01*
G75*
G02*
X150234999Y-117595000I249999J0D01*
G01*
X150935001Y-117595000D01*
G75*
G02*
X151185000Y-117844999I0J-249999D01*
G01*
X151185000Y-118745001D01*
G75*
G02*
X150935001Y-118995000I-249999J0D01*
G01*
X150234999Y-118995000D01*
G75*
G02*
X149985000Y-118745001I0J249999D01*
G01*
G37*
G36*
G01*
X181485000Y-118745001D02*
X181485000Y-117844999D01*
G75*
G02*
X181734999Y-117595000I249999J0D01*
G01*
X182435001Y-117595000D01*
G75*
G02*
X182685000Y-117844999I0J-249999D01*
G01*
X182685000Y-118745001D01*
G75*
G02*
X182435001Y-118995000I-249999J0D01*
G01*
X181734999Y-118995000D01*
G75*
G02*
X181485000Y-118745001I0J249999D01*
G01*
G37*
G36*
G01*
X183485000Y-118745001D02*
X183485000Y-117844999D01*
G75*
G02*
X183734999Y-117595000I249999J0D01*
G01*
X184435001Y-117595000D01*
G75*
G02*
X184685000Y-117844999I0J-249999D01*
G01*
X184685000Y-118745001D01*
G75*
G02*
X184435001Y-118995000I-249999J0D01*
G01*
X183734999Y-118995000D01*
G75*
G02*
X183485000Y-118745001I0J249999D01*
G01*
G37*
G36*
G01*
X164734999Y-88445000D02*
X165635001Y-88445000D01*
G75*
G02*
X165885000Y-88694999I0J-249999D01*
G01*
X165885000Y-89395001D01*
G75*
G02*
X165635001Y-89645000I-249999J0D01*
G01*
X164734999Y-89645000D01*
G75*
G02*
X164485000Y-89395001I0J249999D01*
G01*
X164485000Y-88694999D01*
G75*
G02*
X164734999Y-88445000I249999J0D01*
G01*
G37*
G36*
G01*
X164734999Y-90445000D02*
X165635001Y-90445000D01*
G75*
G02*
X165885000Y-90694999I0J-249999D01*
G01*
X165885000Y-91395001D01*
G75*
G02*
X165635001Y-91645000I-249999J0D01*
G01*
X164734999Y-91645000D01*
G75*
G02*
X164485000Y-91395001I0J249999D01*
G01*
X164485000Y-90694999D01*
G75*
G02*
X164734999Y-90445000I249999J0D01*
G01*
G37*
G36*
G01*
X169184999Y-88445000D02*
X170085001Y-88445000D01*
G75*
G02*
X170335000Y-88694999I0J-249999D01*
G01*
X170335000Y-89395001D01*
G75*
G02*
X170085001Y-89645000I-249999J0D01*
G01*
X169184999Y-89645000D01*
G75*
G02*
X168935000Y-89395001I0J249999D01*
G01*
X168935000Y-88694999D01*
G75*
G02*
X169184999Y-88445000I249999J0D01*
G01*
G37*
G36*
G01*
X169184999Y-90445000D02*
X170085001Y-90445000D01*
G75*
G02*
X170335000Y-90694999I0J-249999D01*
G01*
X170335000Y-91395001D01*
G75*
G02*
X170085001Y-91645000I-249999J0D01*
G01*
X169184999Y-91645000D01*
G75*
G02*
X168935000Y-91395001I0J249999D01*
G01*
X168935000Y-90694999D01*
G75*
G02*
X169184999Y-90445000I249999J0D01*
G01*
G37*
D26*
X194445000Y-137795000D03*
X200645000Y-137795000D03*
X194445000Y-141495000D03*
X200645000Y-141495000D03*
X208315000Y-137785000D03*
X214515000Y-137785000D03*
X208315000Y-141485000D03*
X214515000Y-141485000D03*
X121785000Y-128545000D03*
X127985000Y-128545000D03*
X121785000Y-132245000D03*
X127985000Y-132245000D03*
X121785000Y-138545000D03*
X127985000Y-138545000D03*
X121785000Y-142245000D03*
X127985000Y-142245000D03*
D27*
X233285000Y-110945000D03*
D28*
X233285000Y-117245000D03*
X235585000Y-117245000D03*
X230985000Y-117245000D03*
D29*
X208910000Y-91545000D03*
X209560000Y-91545000D03*
X210210000Y-91545000D03*
X210860000Y-91545000D03*
X210860000Y-87245000D03*
X210210000Y-87245000D03*
X209560000Y-87245000D03*
X208910000Y-87245000D03*
D30*
X222685000Y-90640000D03*
D31*
X215185000Y-83140000D03*
X215185000Y-84410000D03*
X215185000Y-85680000D03*
X215185000Y-86950000D03*
X215185000Y-88220000D03*
X215185000Y-89490000D03*
X215185000Y-90760000D03*
X215185000Y-92030000D03*
X215185000Y-93300000D03*
X215185000Y-94570000D03*
X215185000Y-95840000D03*
X215185000Y-97110000D03*
X215185000Y-98380000D03*
X215185000Y-99650000D03*
D32*
X217970000Y-100650000D03*
X219240000Y-100650000D03*
X220510000Y-100650000D03*
X221780000Y-100650000D03*
X223050000Y-100650000D03*
X224320000Y-100650000D03*
X225590000Y-100650000D03*
X226860000Y-100650000D03*
X228130000Y-100650000D03*
X229400000Y-100650000D03*
D31*
X232185000Y-99650000D03*
X232185000Y-98380000D03*
X232185000Y-97110000D03*
X232185000Y-95840000D03*
X232185000Y-94570000D03*
X232185000Y-93300000D03*
X232185000Y-92030000D03*
X232185000Y-90760000D03*
X232185000Y-89490000D03*
X232185000Y-88220000D03*
X232185000Y-86950000D03*
X232185000Y-85680000D03*
X232185000Y-84410000D03*
X232185000Y-83140000D03*
M02*
