G04 #@! TF.GenerationSoftware,KiCad,Pcbnew,(5.1.9)-1*
G04 #@! TF.CreationDate,2021-02-12T16:54:04+01:00*
G04 #@! TF.ProjectId,LTP305_ESP32_CLOCK,4c545033-3035-45f4-9553-5033325f434c,rev?*
G04 #@! TF.SameCoordinates,Original*
G04 #@! TF.FileFunction,Soldermask,Bot*
G04 #@! TF.FilePolarity,Negative*
%FSLAX46Y46*%
G04 Gerber Fmt 4.6, Leading zero omitted, Abs format (unit mm)*
G04 Created by KiCad (PCBNEW (5.1.9)-1) date 2021-02-12 16:54:04*
%MOMM*%
%LPD*%
G01*
G04 APERTURE LIST*
%ADD10C,3.200000*%
%ADD11O,2.400000X1.200000*%
%ADD12O,2.316000X1.158000*%
%ADD13C,0.630000*%
%ADD14C,0.600000*%
%ADD15C,1.200000*%
%ADD16R,1.200000X1.200000*%
G04 APERTURE END LIST*
D10*
X237335000Y-85495000D03*
X226845000Y-140495000D03*
X138835000Y-135495000D03*
X122835000Y-81495000D03*
D11*
X239885000Y-129315000D03*
X239885000Y-137955000D03*
D12*
X236060000Y-129315000D03*
X236060000Y-137955000D03*
D13*
X236785000Y-136635000D03*
X236785000Y-130635000D03*
D14*
X236785000Y-130635000D03*
D15*
X134430000Y-102000000D03*
X134430000Y-104540000D03*
X134430000Y-107080000D03*
X134430000Y-109620000D03*
X134430000Y-112160000D03*
X134430000Y-114700000D03*
X134430000Y-117240000D03*
X126810000Y-117240000D03*
X126810000Y-114700000D03*
X126810000Y-112160000D03*
X126810000Y-109620000D03*
X126810000Y-107080000D03*
X126810000Y-104540000D03*
D16*
X126810000Y-102000000D03*
X137550000Y-102000000D03*
D15*
X137550000Y-104540000D03*
X137550000Y-107080000D03*
X137550000Y-109620000D03*
X137550000Y-112160000D03*
X137550000Y-114700000D03*
X137550000Y-117240000D03*
X145170000Y-117240000D03*
X145170000Y-114700000D03*
X145170000Y-112160000D03*
X145170000Y-109620000D03*
X145170000Y-107080000D03*
X145170000Y-104540000D03*
X145170000Y-102000000D03*
X165720000Y-102000000D03*
X165720000Y-104540000D03*
X165720000Y-107080000D03*
X165720000Y-109620000D03*
X165720000Y-112160000D03*
X165720000Y-114700000D03*
X165720000Y-117240000D03*
X158100000Y-117240000D03*
X158100000Y-114700000D03*
X158100000Y-112160000D03*
X158100000Y-109620000D03*
X158100000Y-107080000D03*
X158100000Y-104540000D03*
D16*
X158100000Y-102000000D03*
D15*
X176465000Y-102000000D03*
X176465000Y-104540000D03*
X176465000Y-107080000D03*
X176465000Y-109620000D03*
X176465000Y-112160000D03*
X176465000Y-114700000D03*
X176465000Y-117240000D03*
X168845000Y-117240000D03*
X168845000Y-114700000D03*
X168845000Y-112160000D03*
X168845000Y-109620000D03*
X168845000Y-107080000D03*
X168845000Y-104540000D03*
D16*
X168845000Y-102000000D03*
X189395000Y-102000000D03*
D15*
X189395000Y-104540000D03*
X189395000Y-107080000D03*
X189395000Y-109620000D03*
X189395000Y-112160000D03*
X189395000Y-114700000D03*
X189395000Y-117240000D03*
X197015000Y-117240000D03*
X197015000Y-114700000D03*
X197015000Y-112160000D03*
X197015000Y-109620000D03*
X197015000Y-107080000D03*
X197015000Y-104540000D03*
X197015000Y-102000000D03*
D16*
X200135000Y-101995000D03*
D15*
X200135000Y-104535000D03*
X200135000Y-107075000D03*
X200135000Y-109615000D03*
X200135000Y-112155000D03*
X200135000Y-114695000D03*
X200135000Y-117235000D03*
X207755000Y-117235000D03*
X207755000Y-114695000D03*
X207755000Y-112155000D03*
X207755000Y-109615000D03*
X207755000Y-107075000D03*
X207755000Y-104535000D03*
X207755000Y-101995000D03*
M02*
